<?xml version="1.0" encoding="utf-8"?>
<!-- Generator: Adobe Illustrator 22.0.0, SVG Export Plug-In . SVG Version: 6.00 Build 0)  -->
<svg version="1.1" id="Capa_1" xmlns="http://www.w3.org/2000/svg" xmlns:xlink="http://www.w3.org/1999/xlink" x="0px" y="0px"
	 viewBox="0 0 540.4 536" style="enable-background:new 0 0 540.4 536;" xml:space="preserve">
<style type="text/css">
	.st0{fill:#E85656;}
	.st1{fill:#E24949;}
	.st2{fill:none;}
	.st3{fill:#FFFFFF;}
</style>
<rect x="4" y="96.9" class="st0" width="536" height="329.6"/>
<g>
	<rect x="153.1" y="176.6" class="st2" width="420" height="207"/>
	<path class="st3" d="M165,308.5c-1.4-1.1-2.1-2.6-2.1-4.3v-0.8c2.7-3.2,5.3-8.5,8-16c1.2-3.6,2.2-6.2,3-7.8
		c7.9-17.5,13.6-33.2,17.2-47.2s5.4-28.8,5.4-44.4c0-16.7-3.2-25.2-9.6-25.6c-2.1,1.1-3.6,4.2-4.4,9.4c-0.3,2.1-0.9,3.9-2,5.3
		c-1.1,1.4-2.4,2.1-4,2.1c-3.2,0-4.8-2.1-4.8-6.2c0-6.3,1.9-11.5,5.6-15.8c2-2.1,4.4-3.2,7.2-3.2v-0.2c4.5,0,8.3,1,11.4,3
		c2.3,1.3,4.4,3.9,6.4,7.6c1.1,2.1,2.1,5.7,3,10.6c0.3,2.4,0.4,4.6,0.5,6.7c0.1,2.1,0.2,3.6,0.3,4.5v5.4c0,9.1-1.1,18.9-3.3,29.5
		c-2.2,10.6-4.8,20-7.9,28.3c-3.5,9.5-6.9,18.5-10.4,27c-4.1,10.4-7.1,18.4-9,24c7.6-1.3,15.5-2,23.6-2c2.8,2,4.2,3.9,4.2,5.6
		c0,1.6-0.9,3.1-2.6,4.4c-2.5,0-6.1,0.2-10.8,0.6l-4.4,0.2c-5.6,0.7-10.7,1-15.4,1C168.1,310.2,166.4,309.6,165,308.5z"/>
	<path class="st3" d="M230.5,195.8v-6.4c0-10,1.1-17.8,3.4-23.4c1.1-3.2,2.8-5.6,5.1-7.3c2.3-1.7,5.2-2.5,8.5-2.5
		c19.1,0,28.6,33.9,28.6,101.8c0,33.5-7.1,50.2-21.4,50.2C238.6,308.2,230.5,270.7,230.5,195.8z M261.7,293
		c2.3-5.9,3.9-15.7,4.8-29.4c0.3-2.9,0.4-6.3,0.4-10.2c0-8.9-0.4-20.8-1.2-35.6c-0.9-14-3-26.7-6.2-38c-1.5-5.7-3.4-10.3-5.9-13.6
		c-2.5-3.3-5.2-5.2-8.3-5.6c-2,1.6-3.4,3.3-4.1,5c-0.7,1.7-1.1,4.1-1.1,7c0,7.3,0.1,13.9,0.4,19.6l0.4,20c0,1.7,0.3,4.9,1,9.6
		c0.7,4.9,1,8.2,1,9.8c0,3.2,0.2,10.5,0.6,22c0.5,10.9,1.8,21,3.8,30.2c0.9,4.7,2.2,8.4,3.8,11.1c1.6,2.7,3.4,4.1,5.4,4.1
		C258.6,299,260.4,297,261.7,293z"/>
	<path class="st3" d="M301.3,235.2c-2.9-3.9-4.8-8-5.6-12.4c-1.2-5.5-1.9-10.4-2.2-14.8c-0.1-4-0.2-8.3-0.2-12.8
		c0-6.3,1.1-13.7,3.2-22.4c1.2-4.7,3-8.4,5.3-11.3c2.3-2.9,5-4.3,7.9-4.3c14.9,0,22.4,13.2,22.4,39.6v0.6h-0.2
		c-1.1,3.1-1.6,10.1-1.6,21.2c-0.1,4.3-0.7,8-1.6,11.2c-0.9,3.2-2.6,5.7-5,7.6c-2.8,2-6.6,3-11.4,3
		C307.6,240.4,304,238.6,301.3,235.2z M322.9,202.2c0-23.3-4.1-35-12.4-35c-1.6,0-3.3,3.7-5,11c-1.7,7.3-2.6,12.9-2.6,16.8
		c0,4,0.1,8,0.4,12c0.4,4.9,1.3,10.2,2.6,15.8c0.7,2.4,1.5,4.3,2.5,5.7c1,1.4,2.2,2.1,3.5,2.1C319.2,230.6,322.9,221.1,322.9,202.2z
		 M320.7,303.8c0-8.1,3.2-24.9,9.6-50.2c5.9-23.1,11.5-44.4,16.8-64l4-14.8l1.8-6.4c0.1-2.4,0.7-4.6,1.7-6.6s2.3-3,3.9-3
		c1.5,0,2.7,0.5,3.8,1.4c1.1,0.9,1.6,2.1,1.6,3.4c0,9.3-5.9,36.1-17.8,80.4c-5.2,19.7-8.1,31.3-8.8,34.8c-0.3,0.9-0.6,2.7-1,5.4
		c-1.2,6.7-2.5,12.1-4,16.2c-0.9,2.8-2.1,5-3.4,6.6c-1.3,1.6-2.8,2.5-4.4,2.6C322,308.1,320.7,306.2,320.7,303.8z M361.3,305.9
		c-2-1.8-3.6-4.2-4.8-7.1c-2.3-5.5-3.8-11.7-4.6-18.6c-0.3-3.7-0.4-6.3-0.4-7.6c0-4.4,0.1-8.6,0.4-12.6c0.1-4.8,0.8-9.8,2-15
		c0.9-4.7,2.9-8.9,5.8-12.6c2.4-3.6,6-5.4,10.8-5.4c2.8,0,5.3,0.5,7.5,1.6c2.2,1.1,4,2.6,5.5,4.6c3.1,4.7,4.9,9.3,5.6,14
		c0.8,4.5,1.2,9.5,1.2,15v9.6c0,9.1-1.4,17-4.2,23.8c-1.6,4-3.9,7.2-7,9.5c-3.1,2.3-6.8,3.5-11.2,3.5
		C365.5,308.6,363.3,307.7,361.3,305.9z M380.5,271.2v-8c0-4.8-0.6-9.9-1.8-15.4c-0.7-3.2-1.8-5.8-3.3-7.7c-1.5-1.9-3.4-2.9-5.5-2.9
		c-1.9,0-3.5,1.5-4.8,4.6c-1.9,4-3.1,11.6-3.8,22.8c-0.1,2.1-0.2,4.9-0.2,8.4c0,3.5,0.8,8.4,2.5,14.8c1.7,6.4,3.3,9.6,4.9,9.6
		C376.5,297.4,380.5,288.6,380.5,271.2z"/>
</g>
<g>
	<rect x="171.1" y="338.3" class="st2" width="481.5" height="176.5"/>
	<path class="st3" d="M176.6,385.4c-0.7-0.4-1-1-1-1.8c1.1-1.1,1.6-3.9,1.6-8.4c0-2.7-0.2-6.7-0.6-12c-0.5-5-0.7-8.9-0.7-11.8l0.1-4
		c0-1.2,0.1-2.5,0.1-4c0-1.3-0.2-3-0.7-5.1c-0.6-2.2-0.9-3.7-0.9-4.5c0-1.7,1.8-2.5,5.5-2.5h1.1c2.6,0,4.8,0.8,6.8,2.4
		c1.5,1.3,2.8,3.3,3.9,5.8c0.7,1.7,1.3,4.1,1.9,7.2c0.3,2.7,0.4,4.8,0.4,6.3v2.3v3.4c-0.1,0.2-0.1,0.4-0.1,0.6c0,0.4,0,0.7,0.1,0.9
		c0,0.2,0.1,0.4,0.1,0.7c0,1.5-0.2,3.4-0.7,5.5c-0.5,2.1-1.1,4.3-2,6.5c-2.2,5.3-4.6,9-7.3,11.2c-1.6,1.2-3.2,1.9-5,1.9
		C178.1,386,177.3,385.8,176.6,385.4z M185.3,377c1.3-2.1,2.4-4.4,3.1-6.9c1.3-4.7,1.9-9.5,1.9-14.3c0-2.6-0.2-5.4-0.7-8.5
		c-0.5-3-1.7-5.7-3.4-8.1c-0.8-1.2-1.8-2.1-3.1-2.7c-1.2-0.6-2.7-1-4.2-1v0.1c0,4.3,0.3,10.8,0.9,19.6c0.6,8.7,0.9,15.3,0.9,19.7
		v6.8C182.4,380.7,183.9,379.1,185.3,377z"/>
	<path class="st3" d="M201,383.6c0-1.2,0.7-1.7,2.2-1.7h0.9c0.2,0,0.4,0.1,0.6,0.1c0.4,0,0.7-0.1,0.8-0.4c0.2-0.2,0.3-0.7,0.3-1.3
		c0-4.1-0.2-9.6-0.7-16.7c-0.4-7.3-0.6-12.9-0.6-16.6c0-1.3,0-2.6,0.1-3.7l0.1-3.7c0-1.6-0.1-2.9-0.2-4c-0.5,0.2-1.1,0.3-1.7,0.3
		c-1.1,0-1.7-0.6-1.7-1.7c0-0.6,0.3-1.1,1-1.5c0.7-0.4,1.6-0.7,2.7-0.9c2-0.3,3.7-0.5,5.1-0.5c0.6,0,1.1,0.2,1.5,0.6
		c0.4,0.4,0.6,0.8,0.6,1.4c0,0.5-0.2,1-0.5,1.4c-0.3,0.4-0.7,0.6-1.2,0.6c-0.3,0-0.5,0-0.7-0.1H209c-0.5,0-0.8,0.1-1,0.3
		c-0.2,0.2-0.3,0.6-0.3,1.2c0,5.1,0.3,12.1,0.9,21c0.6,9.4,0.9,16.4,0.9,21.1v2.7c0.3,0,0.8-0.1,1.4-0.1c2,0,3,0.8,3,2.5v0.4
		l-1.8,1.2c0,0-0.2,0-0.4,0c-0.2,0-0.7,0-1.4,0c-1.6,0.1-2.6,0.1-3,0.1C203.1,385.8,201,385.1,201,383.6z"/>
	<path class="st3" d="M220.8,386.5c-0.8-0.4-1.2-0.9-1.2-1.5s0.1-1,0.4-1.4c0.3-0.4,0.7-0.5,1.2-0.5c0.5,0,1.2,0.2,2.1,0.6
		c1,0.4,1.6,0.6,1.9,0.6c0.9,0,1.7-0.4,2.5-1.2c0.7-0.8,1.3-1.8,1.8-3.1c0.9-2.4,1.3-4.6,1.3-6.5c0-2.1-0.3-4.2-1-6.5
		c-0.6-2.3-1.5-4.5-2.6-6.7l-1.2-2.3c-1.2-2.4-2.1-4.3-2.8-5.7c-0.6-1.4-1.2-2.9-1.7-4.5c-0.7-2.3-1.1-4.5-1.1-6.7
		c0-1.7,0.3-3.4,0.9-4.9c0.6-1.5,1.5-2.8,2.7-3.9c1.2-1.2,2.7-1.7,4.5-1.7c0.9,0,1.7,0.3,2.5,0.8c0.8,0.5,1.4,1.1,1.7,1.9l-1.2,1.5
		c-1.2,0-2.2-0.2-2.8-0.7c-0.9,0.1-1.6,0.5-2.3,1.3c-0.6,0.7-1.1,1.6-1.5,2.6c-0.3,0.9-0.4,1.8-0.4,2.7c0,1.8,0.3,3.7,0.8,5.6
		c0.5,1.9,1.2,3.7,2,5.4l5,10.1c0.8,1.7,1.5,3.7,1.9,5.8c0.5,2.2,0.7,4.3,0.7,6.5c0,3.2-0.8,6.1-2.3,8.9c-0.8,1.4-1.9,2.6-3.2,3.4
		c-1.3,0.8-2.7,1.3-4.3,1.3C223.6,387.5,222.1,387.1,220.8,386.5z"/>
	<path class="st3" d="M249.5,386.1c-1.1-0.6-2.1-1.5-2.9-2.5c-0.7-1-1.4-2.3-1.9-3.9c-0.6-1.6-1-3.2-1.3-4.9
		c-0.6-2.8-1-6.6-1.2-11.2c0-1.1-0.1-3-0.1-5.7v-4.5c0-1.3,0.1-2.6,0.1-4c0-2.8,0.2-5.1,0.5-6.7c-0.1-0.7-0.2-1.5-0.2-2.2
		c0-2.9,1.1-5.2,3.2-7c2.2-1.8,4.9-2.7,8.2-2.7c1.2,0,2.4,0.3,3.5,1c1.1,0.7,1.6,1.5,1.6,2.5c0,0.5-0.2,0.9-0.6,1.2
		c-0.4,0.3-0.9,0.4-1.4,0.4c-0.5,0-1-0.1-1.5-0.2c-0.6-0.1-0.9-0.4-1-0.6h-0.9V335c-1.8,0-3.3,0.4-4.5,1.2c-0.9,0.6-1.5,1.7-2,3.1
		c-0.2,0.5-0.3,1.2-0.4,2c-0.1,0.8-0.1,1.6-0.1,2.2c0,0.4-0.1,1.2-0.1,2.3l0.1,2.5l0.1,2.4c0,0.7-0.1,1.6-0.3,2.5
		c-0.2,1.2-0.4,2-0.4,2.5v1.7c0,1.9,0.1,4.4,0.2,7.7c0,2.7,0.4,5.5,0.9,8.2c0.4,2.5,1.2,4.7,2.4,6.5c1.2,1.8,2.7,2.7,4.7,2.7
		c0.8,0,1.8-0.4,3-1.3c1.3-0.9,2.2-1.3,2.7-1.3c0.7,0,1.4,0.4,2.1,1.1c0,1.8-0.7,3.1-2,4.1c-1.2,0.9-2.7,1.4-4.5,1.7
		c-1,0.1-1.7,0.1-2.3,0.1C251.9,387,250.7,386.7,249.5,386.1z"/>
	<path class="st3" d="M273.5,386.6c-1.1-0.9-2-2-2.7-3.5c-1.4-2.6-2.4-6.1-3.1-10.7c-0.5-3.1-0.8-6.7-1.1-10.8l-0.1-3.8v-3.9
		c0-1.2-0.1-2.8-0.1-4.5c0-2.9,0.1-5.4,0.4-7.6c0.2-2.3,0.7-4.6,1.4-6.8c0.8-2,1.9-3.4,3.3-4.2c0.9-0.4,1.7-0.6,2.6-0.6
		c2.5,0,4.6,1,6,3c1.6,2.3,2.7,4.8,3.2,7.6c0.8,3.4,1.2,6.6,1.3,9.6c0.2,3.4,0.3,6.6,0.3,9.6v4.1c0,0.8-0.1,2.4-0.4,4.6
		c-0.2,1.8-0.3,3.3-0.3,4.5v0.3c-0.3,1.3-0.4,2.9-0.4,4.8c0,1.3-0.3,2.7-0.9,4.2c-0.6,1.4-1.4,2.7-2.4,3.7c-1.1,1.2-2.3,1.7-3.6,1.7
		C275.7,387.9,274.5,387.5,273.5,386.6z M279.6,381.3c0.6-1.6,1-3.5,1.3-5.8c0.3-2.3,0.5-4.9,0.7-7.7c0.1-1.2,0.1-2.9,0.1-4.8
		l-0.1-6.6c-0.1-2.6-0.4-5.8-0.9-9.7c-0.4-3.3-1.1-6.2-2.2-8.8c-0.5-1.2-1.1-2.1-1.8-2.8c-0.7-0.7-1.5-1-2.3-1
		c-1.2,0-2.1,0.9-2.7,2.8c-0.7,2-1.2,4.1-1.4,6.5c-0.3,2.5-0.5,5-0.5,7.3l-0.1,2.4c0,0.7-0.1,1.6-0.1,2.7v0.3c0,3.2,0.3,7.2,1,11.9
		c0.8,6.4,1.9,10.9,3.4,13.6c1,1.7,2,2.5,3,2.5C278.1,383.9,278.9,383,279.6,381.3z"/>
	<path class="st3" d="M298.6,383.3c-1.9-2.6-3.2-5.9-4-9.7c-0.9-4.1-1.4-8.4-1.7-13.1c-0.2-4.2-0.4-8.8-0.4-13.8v-6
		c0-1.7,0.1-3.5,0.1-5.3c-0.4-0.4-0.6-0.9-0.6-1.4s0.2-1.1,0.6-1.5c0.4-0.5,0.9-0.7,1.4-0.7c1.7,0,2.6,1.7,2.6,5.1
		c0,2.2,0.1,6.4,0.4,12.5c0.2,6.1,0.4,10.3,0.4,12.5c0.2,0.6,0.5,1.9,0.7,3.7c0.2,1.9,0.3,3.4,0.3,4.6c0,1.1,0.2,2.4,0.5,3.9
		c0.3,1.6,0.8,3.1,1.4,4.7c0.6,1.7,1.4,3.1,2.4,4.1c1,1.1,2.1,1.6,3.2,1.6c0.7,0,1.2-0.2,1.7-0.6s0.8-1.1,0.9-1.9
		c0.3-1.3,0.4-2.7,0.4-4v-14c0-1.8-0.2-4-0.5-6.8c-0.3-3-0.4-5.3-0.4-6.8V350c0-0.8,0-1.5-0.1-2.1l-0.1-2.1c0-1.3-0.1-3.4-0.2-6.1
		c-0.2-2.4-0.3-4.5-0.3-6.2c0-0.5,0.3-1,0.8-1.4c0.6-0.4,1.2-0.6,1.8-0.6l1.8,1.7v1.2c0,0.6-0.1,1.3-0.3,2.1
		c-0.2,1.3-0.3,2.1-0.3,2.3c0,4.4,0.2,10.4,0.7,18.1c0.4,8.1,0.6,14.3,0.6,18.8c0,2.4-0.2,4.5-0.7,6.3c-0.3,1.1-0.7,2-1.2,2.7
		c-0.5,0.7-1.2,1.2-2.1,1.7c-0.8,0.5-1.9,0.7-3.2,0.7C302.7,387.2,300.3,385.9,298.6,383.3z"/>
	<path class="st3" d="M333.9,372.1c-3.4-11.6-6.3-22.2-8.7-31.9v23.6c0,2,0.2,5.4,0.6,10.3c0.3,5.3,0.5,8.7,0.5,10.2
		c0,0.4-0.3,0.8-0.8,1.1c-0.5,0.3-1.1,0.5-1.8,0.5c-1,0-1.5-0.4-1.5-1.2l0.1-2.1c0.1-1.5,0.1-2.5,0.1-3c0-2.5-0.1-6.6-0.4-12.1
		c-0.3-5.6-0.4-9-0.4-10.2v-9.2c0-1.5,0.1-3.7,0.2-6.6c0.2-2.5,0.3-4.8,0.3-6.6v-0.4c0-2.4,0.5-3.6,1.6-3.6c0.6,0,1.4,1.1,2.4,3.2
		c1.6,3.5,3.6,9.6,6,18.6c1.4,5.2,3,11.9,4.9,20c0-0.2,0.3,1.5,1.2,5l0.1,0.4c0-4.7,0-8.8,0.1-12.5l0.1-12.5v-21.3
		c0.2-1.2,1-1.8,2.3-1.8c1.3,0,1.9,0.9,1.9,2.8v0.4c-0.3,0.6-0.4,1.3-0.4,2.1c0,2.9-0.1,7.3-0.2,13.2c-0.1,6-0.2,10.4-0.2,13.4v22
		c0,0.8-0.2,1.5-0.6,2.2c-0.4,0.7-0.9,1-1.5,1C338.8,386.9,336.9,382,333.9,372.1z"/>
	<path class="st3" d="M355.4,385.3c-0.4-0.7-0.6-1.5-0.6-2.6c0-1.6,0.1-3.5,0.3-5.8l0.1-1.9l0.1-3.8c0-1.7-0.2-5.4-0.5-11.2
		c-0.3-5.8-0.5-9.6-0.5-11.2c0-0.1,0-0.4,0-0.8c0-0.4,0-1,0-1.9c0-1,0.1-2.1,0.1-3.5c0-3.5-0.2-5.7-0.7-6.7c-0.3,0-0.9,0.1-1.9,0.2
		l-2,0.1c-0.6,0-1.2-0.2-1.7-0.5c-0.5-0.4-0.7-0.8-0.7-1.4s0.6-1.1,1.7-1.5c1.7-0.6,4.5-1,8.6-1.2c1.6-0.1,2.6-0.1,3-0.1
		c0.6,0,1.1,0.2,1.6,0.6c0.5,0.4,0.7,0.9,0.7,1.4s-0.2,1-0.6,1.4c-0.4,0.4-0.9,0.5-1.5,0.5l-1.3-0.1c-0.4,0-0.8-0.1-1.3-0.1h-0.7
		c0.3,3.3,0.5,6.2,0.5,8.9l-0.1,4.6c0,1.4-0.1,3-0.1,4.7c0,2.3,0.1,5.1,0.3,8.3c0.2,4,0.4,6.7,0.4,8.3c0,1.8,0.1,4,0.3,6.5
		c0.2,2.5,0.3,4.7,0.3,6.5c0,2.4-0.7,3.5-2.1,3.5C356.3,386.4,355.8,386,355.4,385.3z"/>
</g>
</svg>
