<?xml version="1.0" encoding="utf-8"?>
<!-- Generator: Adobe Illustrator 22.0.0, SVG Export Plug-In . SVG Version: 6.00 Build 0)  -->
<svg version="1.1" id="Capa_1" xmlns="http://www.w3.org/2000/svg" xmlns:xlink="http://www.w3.org/1999/xlink" x="0px" y="0px"
	 viewBox="0 0 540.4 536" style="enable-background:new 0 0 540.4 536;" xml:space="preserve">
<style type="text/css">
	.st0{fill:#E24949;}
	.st1{fill:none;}
	.st2{fill:#FFFFFF;}
</style>
<circle class="st0" cx="272" cy="268" r="268"/>
<g>
	<rect x="153.1" y="176.6" class="st1" width="420" height="207"/>
	<path class="st2" d="M165,308.5c-1.4-1.1-2.1-2.6-2.1-4.3v-0.8c2.7-3.2,5.3-8.5,8-16c1.2-3.6,2.2-6.2,3-7.8
		c7.9-17.5,13.6-33.2,17.2-47.2s5.4-28.8,5.4-44.4c0-16.7-3.2-25.2-9.6-25.6c-2.1,1.1-3.6,4.2-4.4,9.4c-0.3,2.1-0.9,3.9-2,5.3
		c-1.1,1.4-2.4,2.1-4,2.1c-3.2,0-4.8-2.1-4.8-6.2c0-6.3,1.9-11.5,5.6-15.8c2-2.1,4.4-3.2,7.2-3.2v-0.2c4.5,0,8.3,1,11.4,3
		c2.3,1.3,4.4,3.9,6.4,7.6c1.1,2.1,2.1,5.7,3,10.6c0.3,2.4,0.4,4.6,0.5,6.7c0.1,2.1,0.2,3.6,0.3,4.5v5.4c0,9.1-1.1,18.9-3.3,29.5
		c-2.2,10.6-4.8,20-7.9,28.3c-3.5,9.5-6.9,18.5-10.4,27c-4.1,10.4-7.1,18.4-9,24c7.6-1.3,15.5-2,23.6-2c2.8,2,4.2,3.9,4.2,5.6
		c0,1.6-0.9,3.1-2.6,4.4c-2.5,0-6.1,0.2-10.8,0.6l-4.4,0.2c-5.6,0.7-10.7,1-15.4,1C168.1,310.2,166.4,309.6,165,308.5z"/>
	<path class="st2" d="M230.5,195.8v-6.4c0-10,1.1-17.8,3.4-23.4c1.1-3.2,2.8-5.6,5.1-7.3c2.3-1.7,5.2-2.5,8.5-2.5
		c19.1,0,28.6,33.9,28.6,101.8c0,33.5-7.1,50.2-21.4,50.2C238.6,308.2,230.5,270.7,230.5,195.8z M261.7,293
		c2.3-5.9,3.9-15.7,4.8-29.4c0.3-2.9,0.4-6.3,0.4-10.2c0-8.9-0.4-20.8-1.2-35.6c-0.9-14-3-26.7-6.2-38c-1.5-5.7-3.4-10.3-5.9-13.6
		c-2.5-3.3-5.2-5.2-8.3-5.6c-2,1.6-3.4,3.3-4.1,5c-0.7,1.7-1.1,4.1-1.1,7c0,7.3,0.1,13.9,0.4,19.6l0.4,20c0,1.7,0.3,4.9,1,9.6
		c0.7,4.9,1,8.2,1,9.8c0,3.2,0.2,10.5,0.6,22c0.5,10.9,1.8,21,3.8,30.2c0.9,4.7,2.2,8.4,3.8,11.1c1.6,2.7,3.4,4.1,5.4,4.1
		C258.6,299,260.4,297,261.7,293z"/>
	<path class="st2" d="M301.3,235.2c-2.9-3.9-4.8-8-5.6-12.4c-1.2-5.5-1.9-10.4-2.2-14.8c-0.1-4-0.2-8.3-0.2-12.8
		c0-6.3,1.1-13.7,3.2-22.4c1.2-4.7,3-8.4,5.3-11.3c2.3-2.9,5-4.3,7.9-4.3c14.9,0,22.4,13.2,22.4,39.6v0.6h-0.2
		c-1.1,3.1-1.6,10.1-1.6,21.2c-0.1,4.3-0.7,8-1.6,11.2c-0.9,3.2-2.6,5.7-5,7.6c-2.8,2-6.6,3-11.4,3
		C307.6,240.4,304,238.6,301.3,235.2z M322.9,202.2c0-23.3-4.1-35-12.4-35c-1.6,0-3.3,3.7-5,11c-1.7,7.3-2.6,12.9-2.6,16.8
		c0,4,0.1,8,0.4,12c0.4,4.9,1.3,10.2,2.6,15.8c0.7,2.4,1.5,4.3,2.5,5.7c1,1.4,2.2,2.1,3.5,2.1C319.2,230.6,322.9,221.1,322.9,202.2z
		 M320.7,303.8c0-8.1,3.2-24.9,9.6-50.2c5.9-23.1,11.5-44.4,16.8-64l4-14.8l1.8-6.4c0.1-2.4,0.7-4.6,1.7-6.6s2.3-3,3.9-3
		c1.5,0,2.7,0.5,3.8,1.4c1.1,0.9,1.6,2.1,1.6,3.4c0,9.3-5.9,36.1-17.8,80.4c-5.2,19.7-8.1,31.3-8.8,34.8c-0.3,0.9-0.6,2.7-1,5.4
		c-1.2,6.7-2.5,12.1-4,16.2c-0.9,2.8-2.1,5-3.4,6.6c-1.3,1.6-2.8,2.5-4.4,2.6C322,308.1,320.7,306.2,320.7,303.8z M361.3,305.9
		c-2-1.8-3.6-4.2-4.8-7.1c-2.3-5.5-3.8-11.7-4.6-18.6c-0.3-3.7-0.4-6.3-0.4-7.6c0-4.4,0.1-8.6,0.4-12.6c0.1-4.8,0.8-9.8,2-15
		c0.9-4.7,2.9-8.9,5.8-12.6c2.4-3.6,6-5.4,10.8-5.4c2.8,0,5.3,0.5,7.5,1.6c2.2,1.1,4,2.6,5.5,4.6c3.1,4.7,4.9,9.3,5.6,14
		c0.8,4.5,1.2,9.5,1.2,15v9.6c0,9.1-1.4,17-4.2,23.8c-1.6,4-3.9,7.2-7,9.5c-3.1,2.3-6.8,3.5-11.2,3.5
		C365.5,308.6,363.3,307.7,361.3,305.9z M380.5,271.2v-8c0-4.8-0.6-9.9-1.8-15.4c-0.7-3.2-1.8-5.8-3.3-7.7c-1.5-1.9-3.4-2.9-5.5-2.9
		c-1.9,0-3.5,1.5-4.8,4.6c-1.9,4-3.1,11.6-3.8,22.8c-0.1,2.1-0.2,4.9-0.2,8.4c0,3.5,0.8,8.4,2.5,14.8c1.7,6.4,3.3,9.6,4.9,9.6
		C376.5,297.4,380.5,288.6,380.5,271.2z"/>
</g>
<g>
	<rect x="171.1" y="338.3" class="st1" width="481.5" height="176.5"/>
	<path class="st2" d="M177.7,385.7c-0.6-0.3-0.9-0.6-0.9-1c0-0.3,0.2-0.8,0.6-1.4c0.4-0.6,0.6-1.1,0.5-1.4l-0.2-6.3l-0.5-19.7
		l-0.1-8.7c0-5.3-0.2-8.7-0.4-10c-0.1-0.5-0.3-1.1-0.6-1.8c-0.3-0.9-0.5-1.6-0.5-1.9c0-1.2,1.8-1.7,5.5-1.7h0.4
		c2.4,0,4.6,0.8,6.3,2.5c1.4,1.3,2.6,3.3,3.7,6.1c0.8,2.2,1.3,4.7,1.7,7.4c0.2,1.4,0.4,3.6,0.5,6.6v2.2c0,3-0.4,6.2-1.2,9.7
		c-0.8,3.5-1.9,6.7-3.3,9.8c-0.9,1.9-2,3.6-3.3,5.2c-1.4,1.5-2.7,2.7-3.9,3.6c-1.2,0.9-2.1,1.3-2.5,1.3
		C178.9,386.1,178.3,385.9,177.7,385.7z M180.5,382.4c1.8-0.9,3.4-2.2,4.8-4c1.4-1.8,2.5-3.7,3.3-5.8c0.7-1.8,1.3-3.8,1.8-6.1
		c0.5-2.3,0.8-4.4,1-6.4c0.1-1.7,0.2-3.4,0.2-5c0-14-3.9-21-11.6-21c-1,0-1.5,0.3-1.5,0.8c0,1.7,0.1,3.7,0.3,6
		c0.2,2.4,0.3,4.3,0.3,6c0,2.6,0.2,7.2,0.6,13.8c0.3,5.7,0.5,10.2,0.5,13.7v8.1H180.5z"/>
	<path class="st2" d="M204.4,385.6c-0.3,0-0.6-0.1-0.9-0.4c-0.3-0.2-0.4-0.5-0.4-0.8c0-0.6,0.4-0.9,1.2-0.9h2.8
		c0-5.5-0.2-12.5-0.5-20.9c-0.2-6.7-0.4-12-0.6-15.8l0.1-3.7v-4.8c0-2.4,0-3.9-0.1-4.6h-2.5c-0.5,0-0.7-0.3-0.7-1
		c0-0.4,0.2-0.8,0.6-1c0.3-0.1,1.2-0.2,2.7-0.2h2c0.7,0,1.6,0.1,2.7,0.1c0.4,0,0.7,0.1,0.9,0.3c0.2,0.2,0.4,0.4,0.4,0.8
		c0,0.3-0.1,0.6-0.2,0.8c-0.1,0.2-0.4,0.4-0.6,0.4c-0.3,0-0.6,0-0.9-0.1h-0.9h-0.7c-0.5,0-0.8,0-0.9,0.1l-0.1,0.3
		c0,3.7,0.3,11.3,0.9,22.7c0.6,10.5,0.9,18.1,0.9,22.7v2c0,0.6-0.1,1.3-0.1,1.9h2.6c1.1,0,1.7,0.3,1.7,1c0,0.3-0.1,0.6-0.3,0.8
		s-0.4,0.4-0.7,0.4h-3.9C207.7,385.6,206.2,385.6,204.4,385.6z"/>
	<path class="st2" d="M224.3,387.4c-0.5-0.1-0.9-0.2-1.5-0.5c-0.6-0.3-1-0.7-1.3-1.2c0-0.6,0.3-0.9,0.8-0.9c0.5,0,1.2,0.2,2,0.5
		c0.8,0.4,1.4,0.6,1.9,0.6c1.1,0,2-0.4,2.9-1.3c0.9-0.9,1.6-2,2.1-3.4c1-2.7,1.4-5.2,1.4-7.3c0-2.4-0.3-4.7-1-7.1
		c-0.7-2.4-1.6-4.7-2.7-6.8c-0.2-0.5-0.6-1.3-1.2-2.4c-1.2-2.4-2.1-4.3-2.7-5.6s-1.2-2.8-1.7-4.5c-0.7-2.2-1-4.5-1-7
		c0-1.6,0.3-3.1,0.8-4.6c0.5-1.5,1.3-2.7,2.4-3.8c1.2-1.1,2.5-1.7,4-1.7c0.6,0,1.3,0.2,2.1,0.7c0.8,0.5,1.2,0.9,1.2,1.3
		c0,0.4-0.1,0.6-0.4,0.6s-0.7-0.1-1.2-0.4c-0.4-0.2-0.8-0.4-1.2-0.4c-1.1,0-2.1,0.4-2.9,1.2c-0.8,0.8-1.5,1.8-1.8,3
		c-0.3,1-0.5,2.1-0.5,3.3c0,1.9,0.2,3.8,0.7,5.8c0.5,2,1.1,3.9,1.9,5.6l2.5,5.3l0.7,1.5c1,2.1,1.8,3.8,2.3,5.1
		c0.6,1.3,1,2.9,1.4,4.5c0.5,2.3,0.8,4.4,0.8,6.5c0,2.8-0.7,5.6-2.2,8.5c-0.7,1.4-1.7,2.5-2.9,3.4c-1.2,0.9-2.5,1.3-4,1.3
		C225.4,387.5,224.7,387.5,224.3,387.4z"/>
	<path class="st2" d="M250.1,385.5c-1.5-1.1-2.5-2.3-3.2-3.6c-0.6-1.2-1.2-5.2-1.8-11.9c-0.6-6.7-0.9-11.6-0.9-14.9v-3.8
		c0-1.1-0.1-2.3-0.1-3.7c0-2.5,0.1-5,0.4-7.4c0.2-1.2,0.4-2.2,0.8-3.1c0.3-0.9,0.8-1.7,1.3-2.5c1.1-1.6,2.6-2.7,4.8-3.2
		c1.1-0.3,2.3-0.4,3.7-0.4c0.9,0,1.8,0.3,2.8,0.8c0.9,0.5,1.4,1.2,1.4,1.9c0,0.5-0.4,0.8-1.2,0.8c-0.3,0-0.8-0.2-1.7-0.5
		c-0.7-0.3-1.4-0.5-1.9-0.5c-1.3,0-2.6,0.3-3.6,0.8c-1.1,0.6-1.9,1.3-2.6,2.2c-0.5,0.8-1,1.8-1.4,3.2c-0.4,1.3-0.6,2.7-0.7,4
		c-0.1,1.2-0.2,2.6-0.2,4.3l0.1,4c0,1.2,0.1,2.4,0.1,3.7c0,3.3,0.3,8.2,1,14.6c0.7,6.4,1.3,10.2,1.9,11.2c0.6,0.9,1.4,1.6,2.6,2.1
		c1.1,0.5,2.3,0.7,3.6,0.7c2.2,0,3.9-0.7,5-2.1c0.4-0.6,0.9-0.9,1.4-0.9c0.4,0,0.6,0.3,0.6,1c0,0.9-0.3,1.6-0.8,2.3
		c-0.5,0.6-1.2,1.1-2.2,1.5c-1.5,0.7-3.2,1-5,1C253,387.1,251.6,386.6,250.1,385.5z"/>
	<path class="st2" d="M267.9,352.8v-2.9c0-4,0.2-7.5,0.7-10.5c0.3-1.9,0.7-3.4,1.2-4.6c0.5-1.2,1.2-2.2,2.1-2.9
		c0.8-0.8,1.9-1.2,3.2-1.2c1.2,0,2.2,0.2,3.2,0.7c1,0.5,1.8,1,2.4,1.8c0.5,0.7,1,1.6,1.4,2.7c0.4,1.1,0.8,2.2,1,3.2l0.6,3.4
		c1.2,8.2,1.7,15.5,1.7,21.8v0.2c0,2.4,0,4.6-0.1,6.6c-0.1,2.4-0.4,4.9-0.8,7.6c-0.2,1.3-0.5,2.4-0.8,3.4c-0.4,1-0.8,1.9-1.4,2.9
		c-1,1.7-2.4,2.6-4.2,2.6C271.3,387.5,267.9,375.9,267.9,352.8z M280.2,384.1c0.6-0.9,1.1-2.1,1.4-3.7c0.8-3.4,1.2-6.6,1.4-9.9
		c0.1-2.6,0.1-5.1,0.1-7.6v-0.3l-0.1-7.2c-0.1-2.6-0.4-6-0.9-10.1c-0.4-2.9-1.2-5.9-2.4-9c-0.5-1.2-1.1-2.1-1.9-2.8
		c-0.8-0.7-1.6-1-2.6-1c-0.8,0-1.5,0.4-2.2,1.2c-0.6,0.8-1.1,1.8-1.5,3.2c-0.9,3.2-1.3,6.2-1.4,8.9c-0.1,2.4-0.2,4.8-0.2,7.3v3.5
		c0,3.2,0.3,7.3,0.9,12.2c0.4,3.1,0.9,5.8,1.4,8.1c0.6,2.3,1.3,4.2,2.3,5.8c1,1.7,2.1,2.5,3.3,2.5
		C278.8,385.4,279.5,385,280.2,384.1z"/>
	<path class="st2" d="M301.8,386.6c-1-0.5-1.8-1.1-2.4-1.9c-0.6-0.7-1.2-1.6-1.7-2.7c-0.5-1.1-0.9-2.1-1.2-3.2
		c-0.5-1.6-0.8-3.7-1.1-6.1l-0.1-2.2c0-0.5,0-0.8,0-0.9c0-0.1,0-0.2,0-0.3c-0.2-2.4-0.5-7.5-0.9-15.6c-0.4-8-0.5-14.3-0.5-18.7v-0.5
		V334c0-1.2,0.4-1.9,1.1-1.9c1,0,1.5,0.6,1.5,1.7v0.5l-0.1,0.6c0,5.6,0.2,12.2,0.5,19.8c0.3,7.6,0.7,13.1,1,16.5
		c0.2,2.1,0.6,4.3,1.2,6.5c0.4,1.5,0.8,2.7,1.3,3.7c0.5,1,1,1.8,1.8,2.5c0.9,0.8,1.7,1.2,2.5,1.2c0.8,0,1.5-0.2,2.2-0.6
		c0.6-0.4,1.1-0.9,1.5-1.5c0.3-0.5,0.6-1.2,0.8-2.1c0.2-0.8,0.3-1.6,0.4-2.4c0-0.5,0.1-1.3,0.1-2.4v-8.2c0-3.6-0.1-8.1-0.3-13.5
		l-0.3-9.2l-0.1-6.1c-0.1-2.7-0.2-4.7-0.2-6.1c0-0.5,0.1-0.9,0.4-1.2s0.6-0.4,1-0.4c0.4,0,0.7,0.1,1,0.4c0.3,0.3,0.4,0.7,0.4,1.2
		v5.5c0,2.4,0,4.6,0.1,6.5v6.5c0,4.7,0,8.7,0.1,12.2c0,3.6,0.1,7.5,0.1,12c0,1.2,0,2.3-0.1,3.2c-0.1,0.9-0.3,1.9-0.6,2.9
		c-0.3,1.2-0.7,2.1-1.2,2.9s-1.2,1.5-2,2c-0.9,0.5-1.9,0.8-3,0.8C303.8,387.3,302.8,387.1,301.8,386.6z"/>
	<path class="st2" d="M335.5,386.2c-0.3-0.3-0.5-0.7-0.6-1.2l-0.2-1.4c-0.1-0.6-0.2-0.9-0.2-1.1c-5.4-19.2-8.3-30-8.9-32.4
		c-0.4-1.7-1.4-6.5-3-14.4c0,0.3-0.1,1.3-0.1,3v26.1l0.1,10.3l0.1,10.2l-0.4,0.6h-1.7l-0.2-0.6c0.1-0.5,0.1-1.4,0.1-2.9l-0.1-12.5
		l-0.1-12.5V348v-6.8c0-2-0.1-4.3-0.1-6.8c0-0.3,0-0.6-0.1-0.8v-0.7c0-0.6,0.2-1,0.5-1.2c0.3-0.2,0.8-0.3,1.5-0.3
		c0.3,0,0.6,0.1,1,0.4c0.4,0.3,0.6,0.6,0.7,0.9l1.5,7.1c0.7,3.4,1.2,5.9,1.7,7.6c1,4,2.7,10.5,5.2,19.6c1.4,6,2.6,10.5,3.7,13.7
		c0.3-0.7,0.4-1.9,0.4-3.5c0-4.7,0-8.8,0.1-12.5l0.1-12.5c0-2.1,0-3.9,0.1-5.6V341l-0.1-10.2c0.2-0.7,0.7-1,1.5-1
		c0.4,0,0.6,0.7,0.6,2.1c0,0.6,0,1.1-0.1,1.5c0,0.4,0,0.7,0,0.8c0,0.2,0,0.3,0,0.3v4.6c0,6.4,0,12.1-0.1,17.1c0,5-0.1,10.7-0.1,17
		c0,1.2-0.1,3.1-0.2,5.7l-0.1,5.7c0,1.4-0.6,2.1-1.9,2.1C336.1,386.7,335.7,386.6,335.5,386.2z"/>
	<path class="st2" d="M355,385.8c-0.2-0.4-0.4-0.8-0.4-1.3v-6.4v-6.4l-0.1-11.5c-0.1-5.1-0.2-9-0.2-11.5l0.1-2.1v-4.7
		c0-5.2,0-7.8-0.1-7.8H346c-0.4,0-0.7-0.1-1-0.3c-0.3-0.2-0.5-0.5-0.5-0.8c0-0.4,0.1-0.6,0.2-0.8c0.1-0.1,0.5-0.3,1.2-0.4
		c0.7-0.1,1.6-0.2,2.9-0.2h7.2l7.9-0.1c0.6,0,1,0.1,1.2,0.3c0.2,0.2,0.3,0.5,0.3,0.9c0,0.7-0.5,1.1-1.4,1.1h-3.2h-3.2L357,334
		l0.1,4.2v5.6V373v6l0.1,5.3v0.1c0,0.4,0,0.7-0.1,1c0,0.3-0.1,0.5-0.3,0.6c-0.1,0.2-0.4,0.4-0.7,0.4
		C355.6,386.4,355.2,386.2,355,385.8z"/>
</g>
</svg>
