<?xml version="1.0" encoding="utf-8"?>
<!-- Generator: Adobe Illustrator 22.0.0, SVG Export Plug-In . SVG Version: 6.00 Build 0)  -->
<svg version="1.1" id="Layer_1" xmlns="http://www.w3.org/2000/svg" xmlns:xlink="http://www.w3.org/1999/xlink" x="0px" y="0px"
	 viewBox="0 0 74.4 20" style="enable-background:new 0 0 74.4 20;" xml:space="preserve">
<style type="text/css">
	.st0{fill:#1E1E1E;stroke:#000000;stroke-width:0.25;stroke-miterlimit:10;}
	.st1{fill:none;stroke:#FFFFFF;stroke-miterlimit:10;}
	.st2{fill:#E0AD63;}
	.st3{fill:none;}
	.st4{fill:#FFFFFF;}
</style>
<g>
	<path class="st2" d="M73.2,11.9L64.4,12l0.2-0.2c0.2,0.7,0.2,1.5-0.3,2.1c-0.4,0.6-1.1,0.9-1.8,1.1c-0.7,0.2-1.3,0.3-2,0.4
		c-0.3,0-0.7,0-1,0c-0.4-0.1-0.7-0.1-1.1-0.4l-0.2-0.1l0.1-0.2c0.4-0.6,0.8-1.3,1.2-1.9l0.1-0.2c0,0,0.1-0.1,0,0c0,0.1,0,0.1,0,0.1
		c0,0-0.2-0.1-0.4-0.1c-0.3-0.1-0.7-0.1-1.1-0.1c-1.5-0.1-3-0.1-4.5-0.1l0.3-0.5c0.4,0.7,0.7,1.4,0.7,2.3c0,0.4-0.2,0.9-0.6,1.2
		c-0.3,0.3-0.7,0.5-1,0.7c-1.5,0.6-3,0.9-4.5,1L48.1,17l0.1-0.5c0.2-0.8,0.4-1.6,0.6-2.4c0.1-0.4,0.3-0.8,0.5-1.1
		c0.2-0.4,0.5-0.8,1-1l0.3-0.1c0,0,0,0,0,0c0,0,0,0-0.1,0.1c0,0.1,0,0.3,0,0.3c0.2,0.2,0.1,0.1,0.1,0.1c-0.1,0-0.3-0.1-0.5-0.1
		c-0.4,0-0.8,0-1.2-0.1c-0.8,0-1.6,0-2.4,0l0.4-0.3c-0.3,0.7-0.7,1.1-1.2,1.5c-0.5,0.4-1,0.7-1.6,0.9c-0.6,0.2-1.1,0.4-1.7,0.5
		c-0.6,0.1-1.1,0.2-1.8,0.2l-0.3,0l-0.1-0.3c-0.1-0.5-0.2-0.9-0.2-1.3c0-0.4,0.2-0.9,0.5-1.3c0.3-0.4,0.8-0.6,1.1-0.8l0.5-0.3
		l0.2-0.1l0.1-0.1l0,0c0,0,0,0,0,0l0,0c0,0-0.1,0.1-0.1,0.1c0,0-0.1,0.2,0,0.3c0,0,0,0.1,0.1,0.2c0.1,0.1,0.2,0.1,0.3,0.1l0.1,0
		l-12.2,0.1l0.4-0.4c0,0.8-0.1,1.5-0.4,2.2c-0.2,0.4-0.4,0.7-0.7,1c-0.3,0.3-0.7,0.5-1,0.6c-1.4,0.5-2.8,0.6-4.2,0.8l-0.4,0l0-0.4
		c0-0.5,0-0.9,0.1-1.3c0.1-0.4,0.2-0.9,0.4-1.3c0.1-0.2,0.3-0.4,0.6-0.6c0.3-0.1,0.5-0.2,0.6-0.2c0.2-0.1,0.3-0.1,0.4-0.2
		c0.1-0.1,0.2-0.2,0.2-0.2l0.3,0.3l-13.4,0.1l0.2-0.2c-0.1,0.6-0.3,1.2-0.8,1.7c-0.2,0.2-0.6,0.4-0.9,0.4c-0.3,0.1-0.6,0.1-0.9,0.1
		l-3.5,0.3l-0.2,0l0-0.2c0-0.5,0.1-0.9,0.4-1.4c0.1-0.2,0.2-0.4,0.4-0.6c0.1-0.1,0.2-0.2,0.3-0.2l0.2-0.1c0,0,0,0,0,0c0,0,0,0,0,0.1
		c0,0.1,0,0.1,0,0.1c-0.1,0-0.4-0.1-0.6-0.1l-0.7,0l-1.3,0c-1.8,0-3.6,0.1-5.4,0.1l-0.2,0l0-0.2l0-1.7l0-0.2l0.2,0l2.9,0l-0.1,0.3
		c-0.7-0.3-1.4-0.6-2-1.2C1.7,8.8,1.6,8.6,1.6,8.4c0-0.2,0-0.4,0-0.6c0-0.4,0-0.7,0.1-1.1l0-0.1l0.2,0c1,0.1,2,0.1,2.9,0.5
		c0.2,0.1,0.5,0.2,0.7,0.4c0.1,0.1,0.2,0.2,0.3,0.3L6,8c0.3,0.4,0.6,0.8,0.9,1.1l0,0l0,0l0.3,0.8L7.1,9.8l6.6,0l-0.1,0.5
		c-0.5-0.2-1-0.5-1.5-0.9c-0.2-0.2-0.4-0.4-0.6-0.7c-0.2-0.2-0.3-0.6-0.3-0.9c-0.1-1.1-0.4-2.1-0.7-3.2l-0.1-0.3l0.3-0.1
		c0.8-0.2,1.5,0,2.1,0.2c0.6,0.2,1.3,0.6,1.8,1c0.5,0.5,0.9,1,1.3,1.6c0.3,0.6,0.6,1.2,0.8,1.9l0,0.1l0,0.1l-0.2,0.5l-0.3-0.4
		l5.2,0.4l-0.2,0.7c-0.4-0.2-0.8-0.4-1.1-0.6c-0.3-0.3-0.7-0.5-0.9-1.1c0-0.1,0-0.3,0-0.4c0-0.1,0-0.2,0-0.3c0-0.2,0-0.4,0-0.6
		c0-0.4-0.1-0.8-0.1-1.1L19,5.7l0.4,0c0.6,0,1.3,0,1.9,0.1C22,5.9,22.6,6,23.2,6.3c0.3,0.1,0.6,0.4,0.8,0.7c0.2,0.3,0.4,0.5,0.5,0.8
		c0.3,0.6,0.6,1.1,0.8,1.8l-0.4-0.3l11,0.1l-0.2,0.9c-1.6-0.7-3.1-1.4-4.6-2.3c-0.4-0.2-0.7-0.5-1.1-0.8c-0.4-0.3-0.7-0.7-0.9-1.1
		c-0.4-0.8-0.8-1.5-1.1-2.4l-0.3-0.8l0.9,0.2c0.9,0.2,1.8,0.5,2.7,0.8c0.4,0.2,0.9,0.4,1.3,0.6c0.2,0.1,0.4,0.3,0.6,0.4
		c0.1,0.1,0.2,0.2,0.3,0.3l0.2,0.2c1.3,1.3,2.7,2.5,4,3.7L37.5,9l7.2,0.2L44.2,10l-0.3-0.7l0.7,0.3c-0.9,0.4-1.8,0.4-2.7,0.3
		c-0.4-0.1-0.9-0.2-1.3-0.4c-0.4-0.2-0.8-0.5-1.1-0.8c-0.6-0.6-1.1-1.4-1.5-2.1c-0.4-0.7-0.8-1.5-1.1-2.3l-0.2-0.5l0.6-0.1
		c0.9-0.2,1.9-0.4,2.8-0.4c0.5,0,1-0.1,1.5,0c0.3,0,0.5,0.1,0.8,0.1c0.1,0,0.3,0.1,0.4,0.2c0.2,0.1,0.2,0.1,0.3,0.2l1.2,0.7
		c0.4,0.2,0.8,0.5,1.3,0.9c0.2,0.2,0.3,0.7,0.3,0.9c0,0.3,0,0.5,0,0.8c0,0.5-0.1,1-0.2,1.4l-0.1-0.4l1.2,1.6l-0.4-0.2l7.1,0.4
		l-0.3,0.8c-0.3-0.3-0.6-0.5-0.9-0.8c-0.3-0.3-0.6-0.6-0.8-1c0-0.1-0.1-0.3-0.1-0.5c0-0.1,0-0.1,0-0.2c0-0.2,0-0.3-0.1-0.5
		c-0.1-0.3-0.1-0.7-0.2-1.1l-0.2-0.6l0.6,0.1c1.3,0.2,2.5,0.4,3.7,1c0.3,0.2,0.6,0.3,0.9,0.7c0.1,0.1,0.2,0.4,0.3,0.5
		c0.1,0.2,0.1,0.3,0.1,0.5c0.2,0.7,0.2,1.3,0.1,2L56.5,10L66,9.5L66,10.1c-1.4-0.5-2.8-1-4.1-1.7c-0.3-0.2-0.7-0.4-1-0.6
		c-0.1-0.1-0.3-0.3-0.4-0.6l-0.1-0.6c-0.1-0.7-0.3-1.4-0.4-2.1l-0.1-0.3l0.3,0c1.3,0,2.7,0.3,3.8,1.2c1,0.9,1.8,1.9,2.7,2.9
		c0.2,0.3,0.4,0.5,0.6,0.8c0.1,0.1,0.1,0.1,0.2,0.3c0,0.1,0,0.1,0.1,0.2c0.1,0.1,0.1,0.3,0.2,0.3c0,0.1,0.2,0,0.4,0l0.5,0l1,0
		l3.9,0.1l0.1,0l0,0.1L73.2,11.9z M73.2,11.8l0.3-1.8l0.1,0.1l-3.9,0l-1,0l-0.5,0l-0.2,0c0,0-0.2,0-0.3-0.1
		c-0.2-0.1-0.3-0.3-0.3-0.4c0-0.1-0.1-0.2-0.1-0.3l-0.1-0.2c-0.2-0.3-0.4-0.5-0.6-0.7c-0.9-1-1.7-1.9-2.7-2.7c-1-0.7-2.3-1-3.5-1
		l0.2-0.3c0.2,0.7,0.3,1.4,0.4,2.2L61,7.1c0,0,0.1,0.2,0.2,0.3c0.3,0.2,0.6,0.4,0.9,0.5c1.3,0.6,2.7,1.1,4,1.6l1.5,0.5l-1.5,0.1
		l-9.6,0.6l-0.4,0l0.1-0.5c0.1-0.5,0-1.1-0.1-1.7c-0.1-0.3-0.2-0.6-0.3-0.7c-0.1-0.2-0.4-0.3-0.6-0.4c-1-0.5-2.3-0.7-3.5-0.9L52.1,6
		c0.1,0.4,0.2,0.8,0.3,1.1c0,0.2,0.1,0.4,0.1,0.6c0,0.1,0,0.2,0,0.3c0,0,0,0,0,0.1C52.5,8.4,52.8,8.7,53,9c0.2,0.2,0.5,0.5,0.8,0.7
		l1.1,0.8l-1.4,0l-7.1-0.3l-0.2,0L46.1,10l-1.3-1.6l-0.1-0.2l0-0.2c0.1-0.4,0.1-0.9,0.1-1.3c0-0.2,0-0.4,0-0.6c0-0.2,0-0.2-0.1-0.4
		c-0.2-0.2-0.6-0.5-1-0.7l-1.2-0.7c-0.1-0.1-0.2-0.1-0.3-0.2c-0.1,0-0.1-0.1-0.2-0.1C41.9,4.1,41.7,4,41.5,4c-0.4,0-0.9,0-1.3,0
		c-0.9,0.1-1.8,0.2-2.7,0.4l0.4-0.7c0.3,0.7,0.6,1.5,1,2.1c0.4,0.7,0.8,1.3,1.3,1.9C40.5,8,40.7,8.2,41,8.4c0.3,0.1,0.7,0.3,1,0.3
		c0.7,0.1,1.5,0.1,2.1-0.2l0.5-0.2l0.2,0.5l0.3,0.7l0.3,0.8l-0.8,0l-7.2-0.2l-0.2,0l-0.1-0.1c-1.4-1.2-2.7-2.5-4.1-3.8l-0.2-0.3
		c-0.1-0.1-0.1-0.1-0.2-0.2c-0.2-0.1-0.3-0.2-0.5-0.3C31.8,5.1,31.4,5,31,4.8c-0.8-0.3-1.7-0.6-2.6-0.8L29,3.4
		c0.3,0.7,0.6,1.5,1,2.2c0.2,0.4,0.4,0.6,0.7,0.8c0.3,0.2,0.6,0.5,1,0.7C33,8,34.6,8.7,36.1,9.4l2.1,0.9l-2.3,0l-11-0.2l-0.3,0
		l-0.1-0.3c-0.1-0.5-0.4-1.1-0.7-1.6c-0.1-0.3-0.3-0.5-0.5-0.7c-0.1-0.2-0.3-0.3-0.5-0.5c-0.4-0.3-1-0.4-1.6-0.5
		c-0.6-0.1-1.2-0.1-1.7-0.1L19.9,6C20,6.5,20,6.9,20,7.3c0,0.2,0,0.4,0,0.6c0,0.1,0,0.2,0,0.3c0,0.1,0,0.1,0,0.2
		c0,0.2,0.3,0.5,0.6,0.7c0.3,0.2,0.6,0.4,1,0.5l2,0.9l-2.2-0.2l-5.2-0.4l-0.4,0l0.1-0.4L16.1,9l0,0.2c-0.3-1.2-1-2.4-1.9-3.2
		c-0.5-0.4-1-0.7-1.6-0.9c-0.6-0.2-1.2-0.3-1.8-0.2l0.2-0.3c0.3,1.1,0.5,2.2,0.7,3.3c0,0.5,0.3,0.9,0.7,1.2c0.4,0.3,0.9,0.6,1.3,0.9
		l1,0.5l-1.1,0l-6.6-0.1l-0.1,0l-0.1-0.1L6.6,9.3l0.1,0.1C6.2,9,5.9,8.6,5.7,8.2L5.5,7.9C5.4,7.8,5.4,7.7,5.3,7.6
		C5.1,7.5,4.9,7.4,4.7,7.3C3.8,7,2.8,6.9,1.9,6.9l0.2-0.1C2,7,2,7.4,1.9,7.8c0,0.4,0,0.7,0.2,0.9c0.4,0.5,1.1,0.9,1.8,1.1l0.8,0.3
		l-0.9,0l-2.9,0L1.1,10l0,1.7l-0.2-0.2c1.8-0.1,3.6-0.1,5.4-0.2l1.4,0l0.7,0l0.3,0c0.1,0,0.2,0,0.4,0.1c0,0,0.1,0.1,0.1,0.2
		c0,0.1-0.1,0.1-0.1,0.2C9.1,12,9,12,9,12l-0.1,0.1c-0.1,0.1-0.2,0.1-0.2,0.2c-0.1,0.1-0.3,0.3-0.3,0.5C8.1,13.1,8,13.6,8,14
		l-0.2-0.2l3.5-0.3c0.6-0.1,1.2-0.1,1.5-0.4c0.4-0.3,0.6-0.9,0.6-1.4l0-0.2l0.2,0L27,11.1l0.3,0l0,0.3c0,0.4-0.2,0.6-0.4,0.8
		c-0.2,0.2-0.4,0.3-0.6,0.4c-0.2,0.1-0.5,0.1-0.5,0.2c-0.1,0.1-0.2,0.2-0.3,0.3c-0.3,0.6-0.4,1.4-0.4,2.2l-0.4-0.4
		c1.3-0.1,2.7-0.3,4-0.8c0.3-0.1,0.6-0.3,0.8-0.4c0.2-0.2,0.4-0.4,0.5-0.7c0.2-0.6,0.3-1.2,0.3-1.8l0-0.4l0.4,0l12.2-0.1l0,0l0,0
		c0.1,0,0.2,0.1,0.3,0.1c0.1,0.1,0.1,0.2,0.1,0.2c0,0.1,0,0.3,0,0.3c0,0-0.1,0.1-0.1,0.1l-0.1,0.1l-0.1,0L43,11.5l-0.1,0.1l-0.3,0.1
		L42.1,12c-0.4,0.2-0.6,0.3-0.8,0.5c-0.2,0.2-0.3,0.5-0.3,0.8c0,0.3,0,0.7,0.1,1l-0.4-0.3c1,0,2.2-0.2,3.1-0.6
		c0.5-0.2,1-0.4,1.4-0.8c0.4-0.3,0.8-0.7,0.9-1.1l0.1-0.3l0.3,0c0.8,0,1.6,0,2.4,0c0.4,0,0.8,0,1.2,0.1c0.2,0,0.4,0,0.7,0.1
		c0.1,0,0.1,0,0.3,0.2c0.1,0.1,0.1,0.3,0.1,0.4c0,0.1-0.1,0.2-0.1,0.2C51,12.5,51,12.5,51,12.5c-0.1,0-0.1,0.1-0.2,0.1l-0.1,0
		c-0.5,0.3-0.9,1-1.1,1.7c-0.3,0.7-0.5,1.5-0.6,2.2l-0.4-0.4c1.4-0.2,3-0.4,4.3-0.9c0.7-0.3,1.2-0.7,1.2-1.3
		c0.1-0.6-0.2-1.3-0.5-1.9l-0.3-0.5l0.6,0c1.5,0,3.1,0,4.6,0.2c0.4,0,0.8,0.1,1.2,0.2c0.2,0.1,0.4,0.1,0.7,0.3
		c0.1,0.1,0.2,0.2,0.1,0.4c0,0.2-0.1,0.2-0.1,0.2L60,13c-0.4,0.7-0.8,1.3-1.2,1.9l0-0.3c0.2,0.1,0.5,0.2,0.8,0.2c0.3,0,0.6,0,0.9,0
		c0.6,0,1.3-0.2,1.9-0.3c0.6-0.2,1.2-0.4,1.6-0.9c0.4-0.5,0.5-1.1,0.3-1.7l-0.1-0.2l0.2,0L73.2,11.8z"/>
</g>
</svg>
