<?xml version="1.0" encoding="utf-8"?>
<!-- Generator: Adobe Illustrator 22.0.0, SVG Export Plug-In . SVG Version: 6.00 Build 0)  -->
<svg version="1.1" id="Layer_1" xmlns="http://www.w3.org/2000/svg" xmlns:xlink="http://www.w3.org/1999/xlink" x="0px" y="0px"
	 viewBox="0 0 74.4 20" style="enable-background:new 0 0 74.4 20;" xml:space="preserve">
<style type="text/css">
	.st0{fill:#1E1E1E;stroke:#000000;stroke-width:0.25;stroke-miterlimit:10;}
	.st1{fill:none;stroke:#FFFFFF;stroke-miterlimit:10;}
	.st2{fill:#E0AD63;}
	.st3{fill:none;}
	.st4{fill:#FFFFFF;}
</style>
<g>
	<path class="st2" d="M1.3,11.8l8.8-0.1l0.2,0l-0.1,0.2c-0.2,0.6-0.1,1.3,0.3,1.7c0.4,0.5,1,0.8,1.6,0.9c0.6,0.2,1.3,0.3,1.9,0.3
		c0.3,0,0.6,0,0.9,0c0.3,0,0.6-0.1,0.8-0.2l0,0.3c-0.4-0.6-0.8-1.3-1.2-1.9l-0.1-0.3c0-0.1,0,0-0.1-0.2c0-0.2,0.1-0.3,0.1-0.4
		c0.3-0.2,0.4-0.2,0.7-0.3c0.4-0.1,0.8-0.1,1.2-0.2c1.5-0.1,3.1-0.2,4.6-0.2l0.6,0L21.1,12c-0.3,0.6-0.6,1.3-0.5,1.9
		c0,0.6,0.5,1,1.2,1.3c1.3,0.5,2.8,0.8,4.3,0.9l-0.4,0.4c-0.1-0.8-0.3-1.5-0.6-2.2c-0.3-0.7-0.6-1.5-1.1-1.7l-0.1,0
		c-0.1,0-0.1,0-0.2-0.1c0,0-0.1,0-0.2-0.1c0,0-0.1-0.1-0.1-0.2c0-0.1,0-0.3,0.1-0.4c0.2-0.2,0.3-0.2,0.3-0.2
		c0.3-0.1,0.5-0.1,0.7-0.1c0.4,0,0.8-0.1,1.2-0.1c0.8,0,1.6,0,2.4,0l0.3,0l0.1,0.3c0.2,0.4,0.5,0.8,0.9,1.1c0.4,0.3,0.9,0.6,1.4,0.8
		c1,0.4,2.1,0.6,3.1,0.6l-0.4,0.3c0.1-0.3,0.1-0.7,0.1-1c0-0.3-0.1-0.6-0.3-0.8c-0.2-0.2-0.4-0.3-0.8-0.5l-0.5-0.3l-0.3-0.1
		l-0.1-0.1l-0.1-0.1l-0.1,0l-0.1-0.1c0,0-0.1-0.1-0.1-0.1c0,0-0.1-0.2,0-0.3c0,0,0-0.1,0.1-0.2c0.1-0.1,0.2-0.1,0.3-0.1l0,0l0,0
		l12.2,0.1l0.4,0l0,0.4c0,0.6,0.1,1.3,0.3,1.8c0.1,0.3,0.3,0.5,0.5,0.7c0.2,0.2,0.5,0.3,0.8,0.4c1.2,0.4,2.6,0.6,4,0.8l-0.4,0.4
		c0-0.7,0-1.6-0.4-2.2c-0.1-0.1-0.2-0.2-0.3-0.3c-0.1-0.1-0.3-0.1-0.5-0.2c-0.2-0.1-0.4-0.2-0.6-0.4c-0.2-0.2-0.4-0.4-0.4-0.8l0-0.3
		l0.3,0l13.4,0.3l0.2,0l0,0.2c0.1,0.5,0.3,1.1,0.6,1.4c0.4,0.4,0.9,0.4,1.5,0.4l3.5,0.3L66.5,14c0-0.4-0.1-0.8-0.3-1.2
		c-0.1-0.2-0.2-0.4-0.3-0.5c-0.1-0.1-0.1-0.1-0.2-0.2L65.5,12c0,0-0.1,0-0.1-0.1c0,0-0.1-0.1-0.1-0.2c0-0.1,0.1-0.2,0.1-0.2
		c0.2-0.1,0.3-0.1,0.4-0.1l0.3,0l0.7,0l1.4,0c1.8,0,3.6,0.1,5.4,0.2l-0.2,0.2l0-1.7l0.2,0.2l-2.9,0l-0.9,0l0.8-0.3
		c0.7-0.3,1.4-0.6,1.8-1.1c0.2-0.3,0.2-0.6,0.2-0.9c0-0.4,0-0.7-0.1-1.1l0.2,0.1c-1,0.1-1.9,0.2-2.8,0.5c-0.2,0.1-0.4,0.2-0.6,0.3
		c-0.1,0.1-0.1,0.1-0.2,0.2l-0.2,0.3c-0.3,0.4-0.6,0.8-0.9,1.2l0.1-0.1l-0.3,0.8l-0.1,0.1l-0.1,0l-6.6,0.1l-1.1,0l1-0.5
		C61.2,9.6,61.7,9.3,62,9c0.4-0.4,0.7-0.7,0.7-1.2c0.1-1.1,0.4-2.2,0.7-3.3l0.2,0.3c-0.5-0.1-1.2,0-1.8,0.2
		c-0.6,0.2-1.2,0.5-1.6,0.9c-0.9,0.8-1.5,2-1.9,3.2l0-0.2l0.2,0.5l0.1,0.4l-0.4,0l-5.2,0.4l-2.2,0.2l2-0.9c0.3-0.1,0.7-0.3,1-0.5
		c0.3-0.2,0.6-0.5,0.6-0.7c0-0.1,0-0.1,0-0.2c0-0.1,0-0.2,0-0.3c0-0.2,0-0.4,0-0.6c0-0.4,0.1-0.8,0.2-1.3L55,6.5
		c-0.6,0-1.2,0-1.7,0.1c-0.6,0.1-1.1,0.2-1.6,0.5c-0.2,0.1-0.4,0.3-0.5,0.5C51,7.7,50.8,8,50.7,8.2c-0.3,0.5-0.5,1.1-0.7,1.6
		l-0.1,0.3l-0.3,0l-11,0.2l-2.3,0l2.1-0.9c1.5-0.7,3-1.4,4.4-2.3c0.3-0.2,0.7-0.5,1-0.7c0.3-0.3,0.5-0.5,0.7-0.8
		c0.4-0.7,0.8-1.5,1-2.2L46.1,4c-0.9,0.2-1.7,0.5-2.6,0.8c-0.4,0.2-0.8,0.3-1.2,0.5c-0.2,0.1-0.4,0.2-0.5,0.3
		c-0.1,0.1-0.1,0.1-0.2,0.2l-0.2,0.3c-1.3,1.3-2.7,2.6-4.1,3.8l-0.1,0.1l-0.2,0l-7.2,0.2l-0.8,0l0.3-0.8l0.3-0.7l0.2-0.5l0.5,0.2
		c0.6,0.2,1.4,0.3,2.1,0.2c0.4-0.1,0.7-0.2,1-0.3C33.8,8.2,34,8,34.3,7.8c0.5-0.5,1-1.2,1.3-1.9c0.4-0.7,0.7-1.4,1-2.1L37,4.5
		c-0.9-0.2-1.8-0.3-2.7-0.4C33.9,4,33.5,4,33,4c-0.2,0-0.4,0-0.6,0.1c-0.1,0-0.2,0.1-0.2,0.1c-0.1,0-0.2,0.1-0.3,0.2l-1.2,0.7
		c-0.4,0.2-0.8,0.5-1,0.7c-0.1,0.1-0.1,0.1-0.1,0.4c0,0.2,0,0.4,0,0.6c0,0.4,0.1,0.9,0.1,1.3l0,0.2l-0.1,0.2L28.4,10l-0.1,0.2
		l-0.2,0L21,10.5l-1.4,0l1.1-0.8c0.3-0.2,0.6-0.5,0.8-0.7c0.2-0.2,0.5-0.5,0.6-0.7c0-0.1,0-0.1,0-0.1c0-0.1,0-0.2,0-0.3
		c0-0.2,0-0.4,0.1-0.6c0.1-0.4,0.2-0.8,0.3-1.1l0.4,0.5c-1.2,0.2-2.4,0.4-3.5,0.9c-0.2,0.1-0.5,0.3-0.6,0.4
		c-0.1,0.1-0.2,0.4-0.3,0.7c-0.1,0.5-0.2,1.2-0.1,1.7l0.1,0.5l-0.4,0l-9.6-0.6L6.9,10l1.5-0.5c1.4-0.5,2.7-0.9,4-1.6
		c0.3-0.2,0.6-0.3,0.9-0.5c0.1-0.1,0.2-0.2,0.2-0.3l0.1-0.5c0.1-0.7,0.3-1.4,0.4-2.2l0.2,0.3c-1.2,0-2.5,0.3-3.5,1
		C9.8,6.6,8.9,7.5,8,8.5C7.8,8.7,7.6,9,7.4,9.2L7.3,9.4c0,0,0,0.2-0.1,0.3C7.1,9.8,7,10,6.9,10.1c-0.1,0.1-0.3,0.1-0.3,0.1l-0.2,0
		l-0.5,0l-1,0l-3.9,0L1,10L1.3,11.8z M1.3,11.9L0.9,10l0-0.1l0.1,0l3.9-0.1l1,0l0.5,0c0.2,0,0.4,0,0.4,0c0.1-0.1,0.2-0.2,0.2-0.3
		C7,9.4,7,9.4,7,9.3C7,9.2,7.1,9.1,7.1,9.1c0.2-0.3,0.4-0.5,0.6-0.8c0.9-1,1.7-2,2.7-2.9c1.1-0.8,2.5-1.1,3.8-1.2l0.3,0l-0.1,0.3
		c-0.1,0.7-0.3,1.4-0.4,2.1L14,7.2c-0.1,0.3-0.3,0.4-0.4,0.6c-0.3,0.3-0.6,0.4-1,0.6c-1.3,0.7-2.7,1.2-4.1,1.7L8.5,9.5L18,10
		l-0.4,0.4c-0.1-0.7,0-1.3,0.1-2c0-0.2,0.1-0.3,0.1-0.5c0-0.1,0.2-0.4,0.3-0.5c0.3-0.3,0.6-0.5,0.9-0.7c1.2-0.6,2.4-0.8,3.7-1
		l0.6-0.1l-0.2,0.6C23.1,6.6,23,7,23,7.3c0,0.2-0.1,0.3-0.1,0.5c0,0.1,0,0.2,0,0.2c0,0.2,0,0.3-0.1,0.5c-0.2,0.5-0.5,0.8-0.8,1
		c-0.3,0.3-0.6,0.5-0.9,0.8l-0.3-0.8L28,9.2l-0.4,0.2l1.2-1.6l-0.1,0.4c-0.1-0.5-0.1-0.9-0.2-1.4c0-0.2,0-0.5,0-0.8
		c0-0.2,0.1-0.7,0.3-0.9c0.4-0.5,0.8-0.7,1.3-0.9l1.2-0.7c0.1-0.1,0.2-0.1,0.3-0.2c0.1-0.1,0.3-0.1,0.4-0.2C32.4,3.1,32.7,3,33,3
		c0.5,0,1,0,1.5,0c1,0.1,1.9,0.2,2.8,0.4l0.6,0.1l-0.2,0.5c-0.3,0.8-0.6,1.6-1.1,2.3c-0.4,0.7-0.9,1.5-1.5,2.1
		c-0.3,0.3-0.7,0.6-1.1,0.8c-0.4,0.2-0.8,0.3-1.3,0.4c-0.9,0.2-1.8,0.1-2.7-0.3l0.7-0.3L30.3,10l-0.5-0.7L37,9l-0.3,0.1
		c1.4-1.2,2.7-2.4,4-3.7l0.2-0.2C41,5.1,41.1,5,41.2,4.9c0.2-0.2,0.4-0.3,0.6-0.4c0.4-0.2,0.9-0.4,1.3-0.6c0.9-0.3,1.8-0.6,2.7-0.8
		l0.9-0.2l-0.3,0.8c-0.3,0.8-0.7,1.6-1.1,2.4c-0.2,0.4-0.5,0.8-0.9,1.1c-0.4,0.3-0.7,0.5-1.1,0.8c-1.5,0.9-3,1.6-4.6,2.3l-0.2-0.9
		l11-0.1l-0.4,0.3c0.2-0.7,0.5-1.2,0.8-1.8c0.2-0.3,0.3-0.5,0.5-0.8c0.2-0.3,0.5-0.6,0.8-0.7c0.6-0.3,1.2-0.5,1.9-0.5
		c0.6-0.1,1.2-0.1,1.9-0.1l0.4,0l-0.1,0.4c-0.1,0.4-0.1,0.8-0.1,1.1c0,0.2,0,0.4,0,0.6c0,0.1,0,0.2,0,0.3c0,0.1,0,0.3,0,0.4
		c-0.2,0.6-0.5,0.9-0.9,1.1c-0.4,0.3-0.7,0.4-1.1,0.6L53,9.6l5.2-0.4l-0.3,0.4l-0.2-0.5l0-0.1l0-0.1c0.2-0.7,0.5-1.3,0.8-1.9
		c0.3-0.6,0.8-1.2,1.3-1.6c0.5-0.5,1.2-0.8,1.8-1c0.7-0.2,1.3-0.4,2.1-0.2L64,4.3l-0.1,0.3c-0.3,1.1-0.5,2.1-0.7,3.2
		c0,0.3-0.1,0.6-0.3,0.9c-0.2,0.3-0.4,0.5-0.6,0.7c-0.4,0.4-0.9,0.7-1.5,0.9l-0.1-0.5l6.6,0l-0.2,0.1l0.3-0.8l0,0l0,0
		c0.3-0.3,0.6-0.7,0.9-1.1l0.2-0.3c0.1-0.1,0.2-0.2,0.3-0.3c0.2-0.2,0.5-0.3,0.7-0.4c1-0.3,2-0.4,2.9-0.5l0.2,0l0,0.1
		c0.1,0.4,0.1,0.8,0.1,1.1c0,0.2,0,0.4,0,0.6c0,0.2-0.1,0.4-0.3,0.6c-0.5,0.6-1.2,0.9-2,1.2l-0.1-0.3l2.9,0l0.2,0l0,0.2l0,1.7l0,0.2
		l-0.2,0c-1.8-0.1-3.6-0.1-5.4-0.1l-1.3,0l-0.7,0c-0.2,0-0.5,0-0.6,0.1c0,0,0.1,0,0-0.1c0-0.1,0-0.1,0-0.1c0,0,0,0,0,0l0.2,0.1
		c0.1,0.1,0.2,0.1,0.3,0.2c0.2,0.2,0.3,0.4,0.4,0.6c0.2,0.4,0.3,0.9,0.4,1.4l0,0.2l-0.2,0l-3.5-0.3c-0.3,0-0.6,0-0.9-0.1
		c-0.3-0.1-0.6-0.2-0.9-0.4c-0.5-0.5-0.7-1.1-0.8-1.7l0.2,0.2l-13.4-0.1l0.3-0.3c0,0,0.1,0.1,0.2,0.2c0.1,0.1,0.3,0.2,0.4,0.2
		c0.2,0.1,0.3,0.1,0.6,0.2c0.2,0.1,0.4,0.3,0.6,0.6c0.3,0.4,0.4,0.9,0.4,1.3c0.1,0.4,0.1,0.9,0.1,1.3l0,0.4l-0.4,0
		c-1.4-0.1-2.8-0.3-4.2-0.8c-0.3-0.1-0.7-0.3-1-0.6c-0.3-0.3-0.5-0.6-0.7-1c-0.3-0.7-0.4-1.4-0.4-2.2l0.4,0.4l-12.2-0.1l0.1,0
		c0.1,0,0.2-0.1,0.3-0.1c0.1-0.1,0.1-0.2,0.1-0.2c0-0.1,0-0.3,0-0.3c0,0-0.1-0.1-0.1-0.1l0,0c0,0,0,0,0,0l0,0l0.1,0.1l0.2,0.1
		l0.5,0.3c0.3,0.2,0.8,0.4,1.1,0.8c0.3,0.4,0.4,0.9,0.5,1.3c0,0.5,0,0.9-0.2,1.3L34.1,15l-0.3,0c-0.6,0-1.2-0.1-1.8-0.2
		c-0.6-0.1-1.1-0.3-1.7-0.5c-0.6-0.2-1.1-0.5-1.6-0.9c-0.5-0.4-0.9-0.8-1.2-1.5l0.4,0.3c-0.8,0-1.6,0-2.4,0c-0.4,0-0.8,0-1.2,0.1
		c-0.2,0-0.4,0-0.5,0.1c0,0-0.1,0.1,0.1-0.1c0,0,0.1-0.2,0-0.3c0-0.1-0.1-0.1-0.1-0.1c0,0,0,0,0,0l0.3,0.1c0.5,0.3,0.7,0.6,1,1
		c0.2,0.4,0.4,0.8,0.5,1.1c0.3,0.8,0.5,1.6,0.6,2.4l0.1,0.5l-0.5-0.1c-1.5-0.2-3-0.4-4.5-1c-0.4-0.2-0.7-0.3-1-0.7
		c-0.3-0.3-0.5-0.8-0.6-1.2c-0.1-0.9,0.3-1.6,0.7-2.3l0.3,0.5c-1.5,0-3,0-4.5,0.1c-0.4,0-0.7,0.1-1.1,0.1c-0.2,0-0.4,0.1-0.4,0.1
		c0,0,0-0.1,0-0.1c0-0.1,0,0,0,0l0.1,0.2c0.4,0.6,0.8,1.3,1.2,1.9l0.1,0.2L16.1,15c-0.4,0.3-0.7,0.3-1.1,0.4c-0.4,0-0.7,0-1,0
		c-0.7-0.1-1.3-0.2-2-0.4c-0.7-0.2-1.3-0.5-1.8-1.1c-0.4-0.6-0.5-1.4-0.3-2.1l0.2,0.2L1.3,11.9z"/>
</g>
</svg>
